<?xml version="1.0" encoding="UTF-8"?>
<svg width="182px" height="20px" viewBox="0 0 182 20" version="1.1" xmlns="http://www.w3.org/2000/svg" xmlns:xlink="http://www.w3.org/1999/xlink">
    <title>编组 26</title>
    <g id="北向" stroke="none" stroke-width="1" fill="none" fill-rule="evenodd">
        <g id="北向_开发者社区" transform="translate(-80.000000, -57.000000)">
            <g id="编组-26" transform="translate(80.000000, 57.000000)">
                <rect id="矩形" x="0" y="0" width="182" height="20"></rect>
                <g id="编组-6" transform="translate(0.000000, 1.000000)">
                    <path d="M91.7606239,13.3178503 C92.4110765,13.0150556 92.9166397,12.5811199 93.2755796,12.0160654 C93.6354082,11.4510995 93.814889,10.7958372 93.814889,10.050367 C93.814889,8.29132572 92.770905,7.10895507 90.6825903,6.50325507 L88.9367001,5.9790231 C88.26349,5.7809509 87.7699341,5.53336065 87.456119,5.23642936 C87.1420222,4.93929894 86.9854073,4.57530366 86.9854073,4.14426652 C86.9854073,3.60841839 87.210403,3.16286657 87.6615433,2.80752257 C88.1122068,2.45226707 88.6799956,2.27463932 89.3645844,2.27463932 C89.9807708,2.27463932 90.5313722,2.431889 91.0162803,2.74641048 C91.4509051,3.02847308 91.7879545,3.39490222 92.0248059,3.84556515 C92.0399342,3.87386434 92.0682402,3.92597113 92.1097455,4.00192979 C92.180879,3.95683694 92.2299918,3.9258605 92.2571274,3.90906685 L93.4978445,3.14071842 C93.5201469,3.1268454 93.560937,3.09874534 93.6203015,3.056374 C93.5952683,2.99484152 93.576022,2.94992568 93.5625192,2.92162649 C93.2172771,2.20730982 92.6907336,1.64216683 91.9838207,1.22617539 C91.2304392,0.783499955 90.3573749,0.562173302 89.3645844,0.562173302 C88.5316167,0.562173302 87.7870564,0.716922738 87.1308818,1.02522681 C86.4744472,1.33397339 85.9609297,1.77375031 85.5904377,2.34446907 C85.2195988,2.91529845 85.0341144,3.56768437 85.0341144,4.30153832 C85.0341144,6.02559839 86.0554059,7.19635288 88.0979888,7.81366904 L89.9807708,8.37288226 C90.619823,8.57088808 91.0933307,8.81843408 91.4017056,9.11545387 C91.7096254,9.41249579 91.8635744,9.77695571 91.8635744,10.2075282 C91.8635744,10.7551031 91.638557,11.200655 91.1876334,11.5442943 C90.7364281,11.8879115 90.1576724,12.0597643 89.4502177,12.0597643 C88.61259,12.0597643 87.8364293,11.8037662 87.1217788,11.2917921 C86.8354679,11.0866617 86.5949753,10.8163037 86.4361713,10.4979766 C86.4134788,10.4524412 86.3663166,10.3611492 86.2947497,10.2240564 C86.1740266,10.2881555 86.0867895,10.3352396 86.0329951,10.3653532 L84.828495,11.039666 C84.8064744,11.0520123 84.7625849,11.0786742 84.6968049,11.1196516 C84.72238,11.183109 84.7424716,11.2301268 84.7570798,11.2607492 C85.1185555,12.019318 85.7104239,12.6205485 86.5318395,13.0645294 C87.4048171,13.5363005 88.4000567,13.7721419 89.5186419,13.7721419 C90.3630101,13.7721419 91.1104746,13.6207335 91.7606239,13.3178503" id="Fill-19" fill="#000000"></path>
                    <path d="M69.7309434,4.34368619 L69.3873702,4.34629707 L67.7064147,4.34583242 L67.654636,4.34550053 L67.5962901,4.49655492 L65.2381365,11.082544 L62.8849028,4.50918888 C62.8782923,4.49066939 62.8667185,4.45458184 62.8505282,4.40185552 L62.8341211,4.34828841 L62.6712858,4.34636344 L60.6344681,4.34676171 L60.7470635,4.62101382 C60.7582038,4.64860498 60.7666133,4.66984596 60.7723135,4.6846704 L64.2148293,13.6657356 L62.5422616,17.6071555 C62.5243807,17.6491949 62.4893992,17.7273441 62.4375988,17.8410276 L62.3879874,17.9499098 L62.7650683,17.9535606 L64.4622792,17.9535606 L69.6650333,4.51675598 L69.7309434,4.34368619 Z" id="Fill-21" fill="#000000"></path>
                    <path d="M56.5532208,4.1017403 C55.8901323,4.1017403 55.2982856,4.25053783 54.7786561,4.54846479 L54.7142416,4.5863888 C54.3104152,4.83030613 53.9849179,5.1457569 53.7384217,5.53223222 L53.7117846,5.57491333 L53.5880705,4.3463214 L51.941403,4.3463214 L51.941403,13.6400274 L53.9246648,13.6400274 L53.9246648,8.32042145 C53.9246648,7.61718992 54.1233052,7.05392764 54.5201093,6.62638641 C54.9161764,6.19957534 55.426768,5.9865902 56.0568472,5.9865902 C56.6406963,5.9865902 57.1021099,6.18167538 57.4467668,6.57248741 C57.7927458,6.96498101 57.9663747,7.49403645 57.9663747,8.16314965 L57.9663747,13.6400274 L59.9325141,13.6400274 L59.9325141,7.77870992 C59.9325141,7.05633938 59.7899655,6.4147067 59.5045865,5.85578112 C59.2186006,5.29555011 58.8206695,4.86243312 58.3117902,4.5579126 C57.8032793,4.25367973 57.216656,4.1017403 56.5532208,4.1017403" id="Fill-23" fill="#000000"></path>
                    <path d="M46.2965097,5.93414045 C45.5428031,5.93414045 44.9394476,6.21261863 44.4805481,6.77141146 C44.0191994,7.33305854 43.7879182,8.07551952 43.7879182,9.00191416 C43.7879182,9.9168254 44.0190477,10.6530247 44.4805481,11.2149373 C44.9394043,11.7736859 45.5427597,12.0521198 46.2965097,12.0521198 C47.0389026,12.0521198 47.6364712,11.7738408 48.0956308,11.2149373 C48.5570445,10.6530247 48.788174,9.91678114 48.788174,9.00191416 C48.788174,8.07556377 48.5569144,7.33305854 48.0956308,6.77141146 C47.6364278,6.21248588 47.0388593,5.93414045 46.2965097,5.93414045 M46.2965097,4.10175136 C47.1769865,4.10175136 47.957742,4.30617373 48.6372809,4.71528397 C49.3172316,5.12468186 49.8491502,5.70327748 50.2321914,6.44980965 C50.6146257,7.19516913 50.8056803,8.04626891 50.8056803,9.00191416 C50.8056803,9.95778067 50.6145607,10.8062474 50.232083,11.5456108 C49.8489768,12.2861468 49.3170799,12.8617554 48.6373026,13.2710648 C47.9578287,13.6801972 47.1771382,13.8846195 46.2965097,13.8846195 C45.4161413,13.8846195 44.6326982,13.6802414 43.9476108,13.2711975 C43.262025,12.861866 42.7271154,12.2862132 42.3440092,11.5456108 C41.9615315,10.8062474 41.7704119,9.95778067 41.7704119,9.00191416 C41.7704119,8.03458636 41.9614448,7.18061021 42.3440092,6.44073798 C42.7271154,5.70013558 43.262025,5.1244606 43.9476108,4.71515122 C44.6328066,4.3061516 45.4162714,4.10175136 46.2965097,4.10175136" id="Fill-25" fill="#000000"></path>
                    <path d="M37.6777663,4.10254347 C38.2863018,4.11493405 38.827215,4.26994899 39.2982085,4.56763257 C39.7895104,4.87814924 40.1698424,5.31427537 40.4390094,5.87503741 C40.6951504,6.40971286 40.8285744,7.01355428 40.8396931,7.6865174 L40.8404516,7.77871656 L40.8404516,13.6400119 L38.8742689,13.6400119 L38.8742689,7.98842705 C38.8742689,7.37717341 38.7175239,6.89163986 38.405291,6.52815348 C38.0949221,6.16710097 37.6733665,5.98659684 37.1357911,5.98659684 C36.5511835,5.98659684 36.0809052,6.18199179 35.719061,6.57382161 C35.3693975,6.95237581 35.1880527,7.4463615 35.1755686,8.05958435 L35.1748534,8.12819716 L35.1748534,13.6400119 L33.2087356,13.6400119 L33.2087356,7.98842705 C33.2087356,7.3774168 33.0493464,6.89208238 32.7316734,6.52866238 C32.4151925,6.1672116 31.9907543,5.98659684 31.4532222,5.98659684 C30.8802751,5.98659684 30.4153936,6.18199179 30.0535494,6.57382161 C29.7038859,6.95237581 29.5225411,7.4463615 29.5100353,8.05958435 L29.5093418,8.12819716 L29.5093418,13.6400119 L27.5261017,13.6400119 L27.5261017,4.34630592 L29.1948332,4.34630592 L29.2991275,5.54887763 L29.3227303,5.51053323 C29.5569591,5.13737778 29.865074,4.82995875 30.2464246,4.5888293 L30.3106441,4.54924584 C30.8075161,4.25094274 31.3600248,4.10174693 31.966653,4.10174693 C32.5854836,4.10174693 33.1386642,4.25709377 33.6245042,4.56787595 C34.0674735,4.85144312 34.4254381,5.23446678 34.6972927,5.71561938 L34.7040549,5.7278772 C34.9601526,5.26017723 35.3177271,4.88556146 35.7768434,4.60405201 L35.8400659,4.56623863 C36.3487935,4.26948435 36.9085195,4.11491192 37.5182037,4.10254347 L37.5980067,4.10174693 L37.6777663,4.10254347 Z" id="Fill-27" fill="#000000"></path>
                    <path d="M25.6197408,4.20654023 C24.990962,4.20654023 24.441791,4.34073458 23.9735501,4.60969857 L23.9129501,4.64547636 C23.5530999,4.86399301 23.2611971,5.15079057 23.0378702,5.50518316 L23.0211597,5.53244242 L22.9197913,4.34631034 L21.1106785,4.34631034 L21.1106785,13.6400163 L23.0939186,13.6400163 L23.0939186,8.32043251 C23.0939186,7.64213702 23.3026807,7.10657652 23.7202483,6.70839653 C24.1388996,6.30915449 24.7079671,6.10886969 25.4314388,6.10886969 C25.6908742,6.10886969 25.916867,6.12176916 26.1083118,6.14728047 L26.1654439,6.15717081 C26.1903038,6.16197216 26.2208855,6.16834445 26.2570808,6.17617707 L26.3753331,6.20219727 L26.3796462,5.96814815 C26.3800363,5.93918518 26.380253,5.91688215 26.380253,5.90117267 L26.3806431,4.3589443 L26.3808816,4.29953592 L26.3247464,4.28387069 C26.259855,4.26574947 26.2120209,4.25397843 26.1800521,4.24840267 C26.0196009,4.22043537 25.8328593,4.20654023 25.6197408,4.20654023" id="Fill-29" fill="#000000"></path>
                    <path d="M17.3647966,9.46386579 L15.5119678,9.46386579 C14.9456962,9.46386579 14.4911315,9.59883455 14.1458894,9.8673339 C13.8049604,10.132625 13.636685,10.465334 13.636685,10.8716343 C13.636685,11.2787974 13.7909808,11.59947 14.1030403,11.8407764 C14.4197163,12.0860877 14.8315403,12.2093739 15.3407881,12.2093739 C15.9946001,12.2093739 16.508226,12.0103503 16.8867374,11.6126792 C17.2530464,11.2278191 17.4425622,10.7305145 17.4551764,10.1165836 L17.4558699,10.0503604 L17.4558699,9.55675085 C17.4558699,9.50546272 17.4151015,9.46386579 17.3647966,9.46386579 M15.7173922,4.10173366 C16.8413308,4.10173366 17.7379545,4.39592132 18.4030587,4.98569058 C19.0554619,5.56402069 19.3891519,6.37321376 19.4043235,7.40742854 L19.4048437,7.48168349 L19.4048437,13.6400207 L17.7570491,13.6400207 L17.6348956,12.5652489 L17.6065246,12.6067795 C17.3883777,12.9151499 17.1101727,13.1686921 16.7724948,13.3670077 L16.7041573,13.4059273 L16.6421051,13.4392713 C16.1624855,13.6899149 15.597601,13.8147721 14.9471701,13.8147721 C13.982729,13.8147721 13.1951462,13.5556984 12.5876944,13.0365333 C11.9769481,12.5150229 11.6704588,11.8320588 11.6704588,10.9938363 C11.6704588,10.3950839 11.8320804,9.86388224 12.1553019,9.40242181 C12.4773313,8.94217831 12.9246787,8.58404643 13.4959786,8.3281368 C14.0399695,8.0842416 14.6632215,7.95719395 15.3645642,7.9466177 L15.4606876,7.94588755 L17.4557399,7.94588755 L17.4558699,7.7263531 C17.4558699,7.16010381 17.3142533,6.72526099 17.0326021,6.41764283 L17.0007416,6.38401127 L16.9664753,6.3502027 C16.6392225,6.03844697 16.1895994,5.88168406 15.6147233,5.88168406 C15.1587281,5.88168406 14.7460588,5.98069804 14.3746564,6.17877024 C14.049441,6.3519949 13.773425,6.5924827 13.5461101,6.90078676 L13.5329325,6.91990365 C13.5249782,6.93194021 13.5149432,6.94767182 13.5029576,6.96698784 L13.4612138,7.03560065 L13.4180829,7.10742173 L13.2468815,6.97869251 L13.2067416,6.9479152 L12.1847349,6.15491838 C12.1681978,6.14210741 12.1434463,6.12186209 12.1102421,6.09404968 L12.0181934,6.01618819 L12.0764309,5.90847868 C12.0982998,5.86922711 12.116094,5.83948973 12.1301603,5.81880189 C12.4827715,5.30105285 12.9546102,4.89130095 13.5438344,4.59045335 C14.1819113,4.26455909 14.9070518,4.10173366 15.7173922,4.10173366" id="Fill-31" fill="#000000"></path>
                    <polygon id="Fill-33" fill="#000000" points="2.06889496 0.694391805 0 0.694391805 0 13.6400207 2.06889496 13.6400207 2.06882994 7.92606263 8.23292579 7.92606263 8.23301248 13.6400207 10.3018858 13.6400207 10.3018858 0.694391805 8.23301248 0.694391805 8.23292579 5.98875191 2.06882994 5.98875191"></polygon>
                    <path d="M77.5084808,2.44755202 C74.9509715,2.44755202 72.8777201,4.56406143 72.8777201,7.17493267 C72.8777201,9.78580391 74.9509715,11.9023354 77.5084808,11.9023354 C80.0659901,11.9023354 82.1392631,9.78580391 82.1392631,7.17493267 C82.1392631,4.56406143 80.0659901,2.44755202 77.5084808,2.44755202 M77.5084808,0.432601073 C81.1560742,0.432601073 84.1130317,3.451255 84.1130317,7.17493267 C84.1130317,10.8986325 81.1560742,13.9172864 77.5084808,13.9172864 C73.860909,13.9172864 70.9039298,10.8986325 70.9039298,7.17493267 C70.9039298,3.451255 73.860909,0.432601073 77.5084808,0.432601073" id="Fill-35" fill="#000000"></path>
                    <polygon id="Fill-37" fill="#1F69FF" points="73.1054576 17.8696941 81.9115256 17.8696941 81.9115256 16.009736 73.1054576 16.009736"></polygon>
                    <path d="M124.000143,8.44311377 C124.000143,8.71856287 123.970815,9.04790419 123.912158,9.43113772 L117.489284,9.43113772 C117.571403,10.3652695 117.858819,11.0688623 118.351533,11.5419162 C118.844247,12.0149701 119.460139,12.251497 120.199209,12.251497 C121.161174,12.251497 121.859185,11.8443114 122.293242,11.0299401 L123.648204,11.8383234 C123.413579,12.4850299 122.96779,12.9850299 122.310839,13.3383234 C121.653887,13.6916168 120.920683,13.8682635 120.111224,13.8682635 C119.278304,13.8682635 118.521636,13.6796407 117.841222,13.3023952 C117.160808,12.9251497 116.618237,12.3652695 116.213508,11.6227545 C115.808779,10.8802395 115.606414,9.99401198 115.606414,8.96407186 C115.606414,7.95808383 115.808779,7.08982036 116.213508,6.35928144 C116.618237,5.62874251 117.157876,5.0748503 117.832424,4.69760479 C118.506972,4.32035928 119.237244,4.13173653 120.02324,4.13173653 C120.820967,4.13173653 121.518978,4.32035928 122.117273,4.69760479 C122.715568,5.0748503 123.178953,5.58982036 123.507429,6.24251497 C123.835905,6.89520958 124.000143,7.62874251 124.000143,8.44311377 Z M117.542075,8.02994012 L122.082079,8.02994012 C122.046885,7.2994012 121.838655,6.73652695 121.457389,6.34131737 C121.076122,5.94610778 120.57461,5.74850299 119.952852,5.74850299 C119.354557,5.74850299 118.838381,5.94610778 118.404324,6.34131737 C117.970266,6.73652695 117.68285,7.2994012 117.542075,8.02994012 Z" id="形状" fill="#000000" fill-rule="nonzero"></path>
                    <polygon id="路径" fill="#000000" fill-rule="nonzero" points="128.844383 11.2634731 131.343145 4.34730539 133.226015 4.34730539 129.477872 13.6706587 128.017328 13.6706587 124.146006 4.34730539 126.187249 4.34730539"></polygon>
                    <path d="M141.660025,8.44311377 C141.660025,8.71856287 141.630697,9.04790419 141.572041,9.43113772 L135.149167,9.43113772 C135.231286,10.3652695 135.518702,11.0688623 136.011416,11.5419162 C136.504129,12.0149701 137.120021,12.251497 137.859092,12.251497 C138.821056,12.251497 139.519067,11.8443114 139.953125,11.0299401 L141.308087,11.8383234 C141.073462,12.4850299 140.627673,12.9850299 139.970722,13.3383234 C139.31377,13.6916168 138.580565,13.8682635 137.771107,13.8682635 C136.938187,13.8682635 136.181519,13.6796407 135.501105,13.3023952 C134.820691,12.9251497 134.278119,12.3652695 133.87339,11.6227545 C133.468661,10.8802395 133.266297,9.99401198 133.266297,8.96407186 C133.266297,7.95808383 133.468661,7.08982036 133.87339,6.35928144 C134.278119,5.62874251 134.817758,5.0748503 135.492307,4.69760479 C136.166855,4.32035928 136.897127,4.13173653 137.683123,4.13173653 C138.480849,4.13173653 139.17886,4.32035928 139.777156,4.69760479 C140.375451,5.0748503 140.838836,5.58982036 141.167312,6.24251497 C141.495788,6.89520958 141.660025,7.62874251 141.660025,8.44311377 Z M135.201958,8.02994012 L139.741962,8.02994012 C139.706768,7.2994012 139.498538,6.73652695 139.117271,6.34131737 C138.736005,5.94610778 138.234493,5.74850299 137.612735,5.74850299 C137.01444,5.74850299 136.498264,5.94610778 136.064206,6.34131737 C135.630149,6.73652695 135.342733,7.2994012 135.201958,8.02994012 Z" id="形状" fill="#000000" fill-rule="nonzero"></path>
                    <polygon id="路径" fill="#000000" fill-rule="nonzero" points="142.984882 13.6706587 142.984882 0 144.797365 0 144.797365 13.6706587"></polygon>
                    <path d="M150.838195,4.13173653 C151.62419,4.13173653 152.357395,4.33532934 153.037809,4.74251497 C153.718223,5.1497006 154.263728,5.7245509 154.674322,6.46706587 C155.084917,7.20958084 155.290215,8.05389222 155.290215,9 C155.290215,9.94610778 155.084917,10.7904192 154.674322,11.5329341 C154.263728,12.2754491 153.718223,12.8502994 153.037809,13.257485 C152.357395,13.6646707 151.62419,13.8682635 150.838195,13.8682635 C150.040468,13.8682635 149.298465,13.6646707 148.612185,13.257485 C147.925905,12.8502994 147.377468,12.2754491 146.966874,11.5329341 C146.556279,10.7904192 146.350982,9.94610778 146.350982,9 C146.350982,8.05389222 146.556279,7.20958084 146.966874,6.46706587 C147.377468,5.7245509 147.925905,5.1497006 148.612185,4.74251497 C149.298465,4.33532934 150.040468,4.13173653 150.838195,4.13173653 Z M150.820598,12.1976048 C151.5714,12.1976048 152.187292,11.9101796 152.668274,11.3353293 C153.149256,10.760479 153.389748,9.98203593 153.389748,9 C153.389748,8.01796407 153.146324,7.23952096 152.659476,6.66467066 C152.172628,6.08982036 151.559668,5.80239521 150.820598,5.80239521 C150.081528,5.80239521 149.468568,6.08982036 148.98172,6.66467066 C148.494872,7.23952096 148.251448,8.01796407 148.251448,9 C148.251448,9.98203593 148.494872,10.760479 148.98172,11.3353293 C149.468568,11.9101796 150.081528,12.1976048 150.820598,12.1976048 Z" id="形状" fill="#000000" fill-rule="nonzero"></path>
                    <path d="M165.607095,9 C165.607095,10.005988 165.419395,10.8772455 165.043994,11.6137725 C164.668593,12.3502994 164.172947,12.9101796 163.557055,13.2934132 C162.941163,13.6766467 162.281278,13.8682635 161.577402,13.8682635 C160.990838,13.8682635 160.442401,13.739521 159.93209,13.4820359 C159.421779,13.2245509 158.996521,12.8323353 158.656314,12.3053892 L158.656314,18 L156.843831,18 L156.843831,4.34730539 L158.445151,4.34730539 C158.468613,4.97005988 158.503807,5.47904192 158.550732,5.8742515 C158.879208,5.2994012 159.310332,4.86526946 159.844105,4.57185629 C160.377879,4.27844311 160.955644,4.13173653 161.577402,4.13173653 C162.281278,4.13173653 162.941163,4.32634731 163.557055,4.71556886 C164.172947,5.10479042 164.668593,5.66766467 165.043994,6.40419162 C165.419395,7.14071856 165.607095,8.00598802 165.607095,9 Z M163.724225,9 C163.724225,8.00598802 163.498398,7.2245509 163.046744,6.65568862 C162.59509,6.08682635 161.999728,5.80239521 161.260657,5.80239521 C160.545049,5.80239521 159.93209,6.06586826 159.421779,6.59281437 C158.911469,7.11976048 158.656314,7.92215569 158.656314,9 C158.656314,10.0898204 158.911469,10.8922156 159.421779,11.4071856 C159.93209,11.9221557 160.545049,12.1796407 161.260657,12.1796407 C162.011459,12.1796407 162.609754,11.9011976 163.055542,11.3443114 C163.501331,10.7874251 163.724225,10.005988 163.724225,9 Z" id="形状" fill="#000000" fill-rule="nonzero"></path>
                    <path d="M175.026533,8.44311377 C175.026533,8.71856287 174.997205,9.04790419 174.938549,9.43113772 L168.515675,9.43113772 C168.597793,10.3652695 168.88521,11.0688623 169.377923,11.5419162 C169.870637,12.0149701 170.486529,12.251497 171.2256,12.251497 C172.187564,12.251497 172.885575,11.8443114 173.319632,11.0299401 L174.674595,11.8383234 C174.439969,12.4850299 173.994181,12.9850299 173.337229,13.3383234 C172.680278,13.6916168 171.947073,13.8682635 171.137615,13.8682635 C170.304694,13.8682635 169.548027,13.6796407 168.867613,13.3023952 C168.187199,12.9251497 167.644627,12.3652695 167.239898,11.6227545 C166.835169,10.8802395 166.632805,9.99401198 166.632805,8.96407186 C166.632805,7.95808383 166.835169,7.08982036 167.239898,6.35928144 C167.644627,5.62874251 168.184266,5.0748503 168.858814,4.69760479 C169.533363,4.32035928 170.263635,4.13173653 171.04963,4.13173653 C171.847357,4.13173653 172.545368,4.32035928 173.143663,4.69760479 C173.741958,5.0748503 174.205344,5.58982036 174.53382,6.24251497 C174.862295,6.89520958 175.026533,7.62874251 175.026533,8.44311377 Z M168.568465,8.02994012 L173.108469,8.02994012 C173.073276,7.2994012 172.865045,6.73652695 172.483779,6.34131737 C172.102512,5.94610778 171.601,5.74850299 170.979243,5.74850299 C170.380948,5.74850299 169.864771,5.94610778 169.430714,6.34131737 C168.996657,6.73652695 168.709241,7.2994012 168.568465,8.02994012 Z" id="形状" fill="#000000" fill-rule="nonzero"></path>
                    <path d="M182,4.7245509 L181.31372,6.17964072 C181.043901,5.92814371 180.703694,5.80239521 180.293099,5.80239521 C179.671342,5.80239521 179.161031,6.08383234 178.762168,6.64670659 C178.363304,7.20958084 178.163872,8.01197605 178.163872,9.05389222 L178.163872,13.6706587 L176.35139,13.6706587 L176.35139,4.34730539 L177.952709,4.34730539 C177.976172,4.91017964 178.011366,5.41317365 178.058291,5.85628743 C178.574467,4.70658683 179.366328,4.13173653 180.433875,4.13173653 C180.76235,4.13173653 181.067363,4.18562874 181.348914,4.29341317 C181.630465,4.4011976 181.847493,4.54491018 182,4.7245509 Z" id="路径" fill="#000000" fill-rule="nonzero"></path>
                    <path d="M108.040906,0.470857005 C111.612137,0.470857005 114.507191,3.42642099 114.507191,7.07216461 C114.507191,10.7179082 111.612137,13.6733674 108.040906,13.6733674 L107.49359,13.6733674 L107.49359,11.4728616 L108.040906,11.4729665 C110.421727,11.4729665 112.351763,9.50266036 112.351763,7.07216461 C112.351763,4.64166886 110.421727,2.67136277 108.040906,2.67136277 L107.49359,2.67125793 L107.49359,0.470857005 L108.040906,0.470857005 Z" id="路径" fill="#000000"></path>
                    <path d="M106.31892,0.470962115 L106.31892,2.67136304 C106.292657,2.67136304 106.266838,2.67157515 106.241459,2.67200474 L106.166635,2.67395134 C106.154382,2.6743863 106.142238,2.67487698 106.130202,2.67542404 L106.059276,2.67938837 C106.024456,2.68171421 105.990596,2.68455958 105.95768,2.68794261 L105.893101,2.6954309 L105.861745,2.69972277 L105.800883,2.70942208 C105.225116,2.8103225 104.990571,3.1229423 104.975053,3.77773231 L104.974223,3.84934074 L104.974223,4.98271784 C104.974223,5.93648022 104.687661,6.63300424 104.114538,7.07228989 C104.679073,7.90609521 104.96549,8.58426681 104.973788,9.1068047 L104.974223,9.16161192 L104.974223,10.294989 L104.974415,10.3298674 C104.981863,10.9973751 105.206075,11.3202968 105.769246,11.4290835 L105.800883,11.4349077 L105.861745,11.444607 L105.893101,11.4488989 L105.95768,11.4563872 L106.007764,11.4610607 L106.059276,11.4649414 L106.130202,11.4689057 L106.166635,11.4703784 L106.241459,11.472325 L106.31892,11.4729667 L106.31892,13.6733676 L106.256486,13.6730166 C104.223442,13.6500823 102.846544,12.5038974 102.819209,10.3602531 L102.818795,10.294989 L102.818795,9.16161192 L102.818129,9.12763841 C102.810142,8.92387156 102.730332,8.72231583 102.580763,8.57025886 C102.349531,8.33517988 101.940155,8.18025738 101.286073,8.17265818 L101.235275,8.17236534 L101.235275,5.97196442 C101.919044,5.97196442 102.343602,5.81517755 102.580763,5.5740709 C102.730332,5.42201393 102.810142,5.2204582 102.818129,5.01669135 L102.818795,4.98271784 L102.818795,3.84934074 C102.818795,1.66370222 104.202906,0.494479079 106.256486,0.47131318 L106.31892,0.470962115 Z" id="路径备份-5" fill="#1F69FF" fill-rule="nonzero"></path>
                </g>
            </g>
        </g>
    </g>
</svg>